<mxfile host="app.diagrams.net" modified="2021-03-25T18:20:52.514Z" agent="5.0 (Windows NT 10.0; WOW64) AppleWebKit/537.36 (KHTML, like Gecko) coc_coc_browser/87.0.152 Chrome/81.0.4044.152 Safari/537.36" etag="57useFeNW44EXVr_Wrs8" version="14.5.1" type="github">
  <diagram id="bObaBcojNviRf4GzR-1r" name="Page-1">
    <mxGraphModel dx="2205" dy="788" grid="1" gridSize="10" guides="1" tooltips="1" connect="1" arrows="1" fold="1" page="1" pageScale="1" pageWidth="827" pageHeight="1169" math="0" shadow="0">
      <root>
        <mxCell id="0" />
        <mxCell id="1" parent="0" />
        <mxCell id="5mjjKiy3UBhydVaI08Zq-34" value="Chu_phuong_tien" style="shape=table;startSize=30;container=1;collapsible=1;childLayout=tableLayout;fixedRows=1;rowLines=0;fontStyle=1;align=center;resizeLast=1;" vertex="1" parent="1">
          <mxGeometry x="-260" y="30" width="250" height="250" as="geometry" />
        </mxCell>
        <mxCell id="5mjjKiy3UBhydVaI08Zq-35" value="" style="shape=partialRectangle;collapsible=0;dropTarget=0;pointerEvents=0;fillColor=none;points=[[0,0.5],[1,0.5]];portConstraint=eastwest;top=0;left=0;right=0;bottom=1;" vertex="1" parent="5mjjKiy3UBhydVaI08Zq-34">
          <mxGeometry y="30" width="250" height="30" as="geometry" />
        </mxCell>
        <mxCell id="5mjjKiy3UBhydVaI08Zq-36" value="PK" style="shape=partialRectangle;overflow=hidden;connectable=0;fillColor=none;top=0;left=0;bottom=0;right=0;fontStyle=1;" vertex="1" parent="5mjjKiy3UBhydVaI08Zq-35">
          <mxGeometry width="30" height="30" as="geometry" />
        </mxCell>
        <mxCell id="5mjjKiy3UBhydVaI08Zq-37" value="Ma_chu_PT varchar(50) NOT NULL " style="shape=partialRectangle;overflow=hidden;connectable=0;fillColor=none;top=0;left=0;bottom=0;right=0;align=left;spacingLeft=6;fontStyle=5;" vertex="1" parent="5mjjKiy3UBhydVaI08Zq-35">
          <mxGeometry x="30" width="220" height="30" as="geometry" />
        </mxCell>
        <mxCell id="5mjjKiy3UBhydVaI08Zq-38" value="" style="shape=partialRectangle;collapsible=0;dropTarget=0;pointerEvents=0;fillColor=none;points=[[0,0.5],[1,0.5]];portConstraint=eastwest;top=0;left=0;right=0;bottom=0;" vertex="1" parent="5mjjKiy3UBhydVaI08Zq-34">
          <mxGeometry y="60" width="250" height="30" as="geometry" />
        </mxCell>
        <mxCell id="5mjjKiy3UBhydVaI08Zq-39" value="" style="shape=partialRectangle;overflow=hidden;connectable=0;fillColor=none;top=0;left=0;bottom=0;right=0;" vertex="1" parent="5mjjKiy3UBhydVaI08Zq-38">
          <mxGeometry width="30" height="30" as="geometry" />
        </mxCell>
        <mxCell id="5mjjKiy3UBhydVaI08Zq-40" value="Ho_dem varchar (20)" style="shape=partialRectangle;overflow=hidden;connectable=0;fillColor=none;top=0;left=0;bottom=0;right=0;align=left;spacingLeft=6;" vertex="1" parent="5mjjKiy3UBhydVaI08Zq-38">
          <mxGeometry x="30" width="220" height="30" as="geometry" />
        </mxCell>
        <mxCell id="5mjjKiy3UBhydVaI08Zq-41" value="" style="shape=partialRectangle;collapsible=0;dropTarget=0;pointerEvents=0;fillColor=none;points=[[0,0.5],[1,0.5]];portConstraint=eastwest;top=0;left=0;right=0;bottom=0;" vertex="1" parent="5mjjKiy3UBhydVaI08Zq-34">
          <mxGeometry y="90" width="250" height="30" as="geometry" />
        </mxCell>
        <mxCell id="5mjjKiy3UBhydVaI08Zq-42" value="" style="shape=partialRectangle;overflow=hidden;connectable=0;fillColor=none;top=0;left=0;bottom=0;right=0;" vertex="1" parent="5mjjKiy3UBhydVaI08Zq-41">
          <mxGeometry width="30" height="30" as="geometry" />
        </mxCell>
        <mxCell id="5mjjKiy3UBhydVaI08Zq-43" value="Ten varchar(20)" style="shape=partialRectangle;overflow=hidden;connectable=0;fillColor=none;top=0;left=0;bottom=0;right=0;align=left;spacingLeft=6;" vertex="1" parent="5mjjKiy3UBhydVaI08Zq-41">
          <mxGeometry x="30" width="220" height="30" as="geometry" />
        </mxCell>
        <mxCell id="5mjjKiy3UBhydVaI08Zq-44" value="" style="shape=partialRectangle;collapsible=0;dropTarget=0;pointerEvents=0;fillColor=none;points=[[0,0.5],[1,0.5]];portConstraint=eastwest;top=0;left=0;right=0;bottom=0;" vertex="1" parent="5mjjKiy3UBhydVaI08Zq-34">
          <mxGeometry y="120" width="250" height="30" as="geometry" />
        </mxCell>
        <mxCell id="5mjjKiy3UBhydVaI08Zq-45" value="" style="shape=partialRectangle;overflow=hidden;connectable=0;fillColor=none;top=0;left=0;bottom=0;right=0;" vertex="1" parent="5mjjKiy3UBhydVaI08Zq-44">
          <mxGeometry width="30" height="30" as="geometry" />
        </mxCell>
        <mxCell id="5mjjKiy3UBhydVaI08Zq-46" value="Noi_thuong_tru nvarchar(50)" style="shape=partialRectangle;overflow=hidden;connectable=0;fillColor=none;top=0;left=0;bottom=0;right=0;align=left;spacingLeft=6;" vertex="1" parent="5mjjKiy3UBhydVaI08Zq-44">
          <mxGeometry x="30" width="220" height="30" as="geometry" />
        </mxCell>
        <mxCell id="5mjjKiy3UBhydVaI08Zq-47" value="" style="shape=partialRectangle;collapsible=0;dropTarget=0;pointerEvents=0;fillColor=none;points=[[0,0.5],[1,0.5]];portConstraint=eastwest;top=0;left=0;right=0;bottom=0;" vertex="1" parent="5mjjKiy3UBhydVaI08Zq-34">
          <mxGeometry y="150" width="250" height="30" as="geometry" />
        </mxCell>
        <mxCell id="5mjjKiy3UBhydVaI08Zq-48" value="" style="shape=partialRectangle;overflow=hidden;connectable=0;fillColor=none;top=0;left=0;bottom=0;right=0;" vertex="1" parent="5mjjKiy3UBhydVaI08Zq-47">
          <mxGeometry width="30" height="30" as="geometry" />
        </mxCell>
        <mxCell id="5mjjKiy3UBhydVaI08Zq-49" value="Dien_thoai int(10)" style="shape=partialRectangle;overflow=hidden;connectable=0;fillColor=none;top=0;left=0;bottom=0;right=0;align=left;spacingLeft=6;" vertex="1" parent="5mjjKiy3UBhydVaI08Zq-47">
          <mxGeometry x="30" width="220" height="30" as="geometry" />
        </mxCell>
        <mxCell id="5mjjKiy3UBhydVaI08Zq-50" value="" style="shape=partialRectangle;collapsible=0;dropTarget=0;pointerEvents=0;fillColor=none;points=[[0,0.5],[1,0.5]];portConstraint=eastwest;top=0;left=0;right=0;bottom=0;" vertex="1" parent="5mjjKiy3UBhydVaI08Zq-34">
          <mxGeometry y="180" width="250" height="30" as="geometry" />
        </mxCell>
        <mxCell id="5mjjKiy3UBhydVaI08Zq-51" value="" style="shape=partialRectangle;overflow=hidden;connectable=0;fillColor=none;top=0;left=0;bottom=0;right=0;" vertex="1" parent="5mjjKiy3UBhydVaI08Zq-50">
          <mxGeometry width="30" height="30" as="geometry" />
        </mxCell>
        <mxCell id="5mjjKiy3UBhydVaI08Zq-52" value="SoCMND nvarchar(20)" style="shape=partialRectangle;overflow=hidden;connectable=0;fillColor=none;top=0;left=0;bottom=0;right=0;align=left;spacingLeft=6;" vertex="1" parent="5mjjKiy3UBhydVaI08Zq-50">
          <mxGeometry x="30" width="220" height="30" as="geometry" />
        </mxCell>
        <mxCell id="5mjjKiy3UBhydVaI08Zq-53" value="" style="shape=partialRectangle;collapsible=0;dropTarget=0;pointerEvents=0;fillColor=none;points=[[0,0.5],[1,0.5]];portConstraint=eastwest;top=0;left=0;right=0;bottom=0;" vertex="1" parent="5mjjKiy3UBhydVaI08Zq-34">
          <mxGeometry y="210" width="250" height="30" as="geometry" />
        </mxCell>
        <mxCell id="5mjjKiy3UBhydVaI08Zq-54" value="" style="shape=partialRectangle;overflow=hidden;connectable=0;fillColor=none;top=0;left=0;bottom=0;right=0;" vertex="1" parent="5mjjKiy3UBhydVaI08Zq-53">
          <mxGeometry width="30" height="30" as="geometry" />
        </mxCell>
        <mxCell id="5mjjKiy3UBhydVaI08Zq-55" value="Ngay_cap DATE()" style="shape=partialRectangle;overflow=hidden;connectable=0;fillColor=none;top=0;left=0;bottom=0;right=0;align=left;spacingLeft=6;" vertex="1" parent="5mjjKiy3UBhydVaI08Zq-53">
          <mxGeometry x="30" width="220" height="30" as="geometry" />
        </mxCell>
        <mxCell id="5mjjKiy3UBhydVaI08Zq-56" value="Ho_So" style="shape=table;startSize=20;container=1;collapsible=1;childLayout=tableLayout;fixedRows=1;rowLines=0;fontStyle=1;align=center;resizeLast=1;" vertex="1" parent="1">
          <mxGeometry x="110" y="100" width="250" height="270" as="geometry">
            <mxRectangle x="100" y="150" width="70" height="20" as="alternateBounds" />
          </mxGeometry>
        </mxCell>
        <mxCell id="5mjjKiy3UBhydVaI08Zq-57" value="" style="shape=partialRectangle;collapsible=0;dropTarget=0;pointerEvents=0;fillColor=none;points=[[0,0.5],[1,0.5]];portConstraint=eastwest;top=0;left=0;right=0;bottom=1;" vertex="1" parent="5mjjKiy3UBhydVaI08Zq-56">
          <mxGeometry y="20" width="250" height="30" as="geometry" />
        </mxCell>
        <mxCell id="5mjjKiy3UBhydVaI08Zq-58" value="PK" style="shape=partialRectangle;overflow=hidden;connectable=0;fillColor=none;top=0;left=0;bottom=0;right=0;fontStyle=1;" vertex="1" parent="5mjjKiy3UBhydVaI08Zq-57">
          <mxGeometry width="30" height="30" as="geometry" />
        </mxCell>
        <mxCell id="5mjjKiy3UBhydVaI08Zq-59" value="MA_Ho_So nvarchar(20) NOT NULL" style="shape=partialRectangle;overflow=hidden;connectable=0;fillColor=none;top=0;left=0;bottom=0;right=0;align=left;spacingLeft=6;fontStyle=5;" vertex="1" parent="5mjjKiy3UBhydVaI08Zq-57">
          <mxGeometry x="30" width="220" height="30" as="geometry" />
        </mxCell>
        <mxCell id="5mjjKiy3UBhydVaI08Zq-60" value="" style="shape=partialRectangle;collapsible=0;dropTarget=0;pointerEvents=0;fillColor=none;points=[[0,0.5],[1,0.5]];portConstraint=eastwest;top=0;left=0;right=0;bottom=0;" vertex="1" parent="5mjjKiy3UBhydVaI08Zq-56">
          <mxGeometry y="50" width="250" height="30" as="geometry" />
        </mxCell>
        <mxCell id="5mjjKiy3UBhydVaI08Zq-61" value="" style="shape=partialRectangle;overflow=hidden;connectable=0;fillColor=none;top=0;left=0;bottom=0;right=0;" vertex="1" parent="5mjjKiy3UBhydVaI08Zq-60">
          <mxGeometry width="30" height="30" as="geometry" />
        </mxCell>
        <mxCell id="5mjjKiy3UBhydVaI08Zq-62" value="Ma_PT int(10)" style="shape=partialRectangle;overflow=hidden;connectable=0;fillColor=none;top=0;left=0;bottom=0;right=0;align=left;spacingLeft=6;" vertex="1" parent="5mjjKiy3UBhydVaI08Zq-60">
          <mxGeometry x="30" width="220" height="30" as="geometry" />
        </mxCell>
        <mxCell id="5mjjKiy3UBhydVaI08Zq-63" value="" style="shape=partialRectangle;collapsible=0;dropTarget=0;pointerEvents=0;fillColor=none;points=[[0,0.5],[1,0.5]];portConstraint=eastwest;top=0;left=0;right=0;bottom=0;" vertex="1" parent="5mjjKiy3UBhydVaI08Zq-56">
          <mxGeometry y="80" width="250" height="30" as="geometry" />
        </mxCell>
        <mxCell id="5mjjKiy3UBhydVaI08Zq-64" value="" style="shape=partialRectangle;overflow=hidden;connectable=0;fillColor=none;top=0;left=0;bottom=0;right=0;" vertex="1" parent="5mjjKiy3UBhydVaI08Zq-63">
          <mxGeometry width="30" height="30" as="geometry" />
        </mxCell>
        <mxCell id="5mjjKiy3UBhydVaI08Zq-65" value="Ma_chu_PT nvarchar(50)" style="shape=partialRectangle;overflow=hidden;connectable=0;fillColor=none;top=0;left=0;bottom=0;right=0;align=left;spacingLeft=6;" vertex="1" parent="5mjjKiy3UBhydVaI08Zq-63">
          <mxGeometry x="30" width="220" height="30" as="geometry" />
        </mxCell>
        <mxCell id="5mjjKiy3UBhydVaI08Zq-66" value="" style="shape=partialRectangle;collapsible=0;dropTarget=0;pointerEvents=0;fillColor=none;points=[[0,0.5],[1,0.5]];portConstraint=eastwest;top=0;left=0;right=0;bottom=0;" vertex="1" parent="5mjjKiy3UBhydVaI08Zq-56">
          <mxGeometry y="110" width="250" height="30" as="geometry" />
        </mxCell>
        <mxCell id="5mjjKiy3UBhydVaI08Zq-67" value="" style="shape=partialRectangle;overflow=hidden;connectable=0;fillColor=none;top=0;left=0;bottom=0;right=0;" vertex="1" parent="5mjjKiy3UBhydVaI08Zq-66">
          <mxGeometry width="30" height="30" as="geometry" />
        </mxCell>
        <mxCell id="5mjjKiy3UBhydVaI08Zq-68" value="Ghi_chu nvarchar(30)" style="shape=partialRectangle;overflow=hidden;connectable=0;fillColor=none;top=0;left=0;bottom=0;right=0;align=left;spacingLeft=6;" vertex="1" parent="5mjjKiy3UBhydVaI08Zq-66">
          <mxGeometry x="30" width="220" height="30" as="geometry" />
        </mxCell>
        <mxCell id="5mjjKiy3UBhydVaI08Zq-199" value="" style="shape=partialRectangle;collapsible=0;dropTarget=0;pointerEvents=0;fillColor=none;points=[[0,0.5],[1,0.5]];portConstraint=eastwest;top=0;left=0;right=0;bottom=0;" vertex="1" parent="5mjjKiy3UBhydVaI08Zq-56">
          <mxGeometry y="140" width="250" height="30" as="geometry" />
        </mxCell>
        <mxCell id="5mjjKiy3UBhydVaI08Zq-200" value="" style="shape=partialRectangle;overflow=hidden;connectable=0;fillColor=none;top=0;left=0;bottom=0;right=0;" vertex="1" parent="5mjjKiy3UBhydVaI08Zq-199">
          <mxGeometry width="30" height="30" as="geometry" />
        </mxCell>
        <mxCell id="5mjjKiy3UBhydVaI08Zq-201" value="Dia_Chi_cap nvarchar(20)" style="shape=partialRectangle;overflow=hidden;connectable=0;fillColor=none;top=0;left=0;bottom=0;right=0;align=left;spacingLeft=6;" vertex="1" parent="5mjjKiy3UBhydVaI08Zq-199">
          <mxGeometry x="30" width="220" height="30" as="geometry" />
        </mxCell>
        <mxCell id="5mjjKiy3UBhydVaI08Zq-221" value="" style="shape=partialRectangle;collapsible=0;dropTarget=0;pointerEvents=0;fillColor=none;points=[[0,0.5],[1,0.5]];portConstraint=eastwest;top=0;left=0;right=0;bottom=0;" vertex="1" parent="5mjjKiy3UBhydVaI08Zq-56">
          <mxGeometry y="170" width="250" height="30" as="geometry" />
        </mxCell>
        <mxCell id="5mjjKiy3UBhydVaI08Zq-222" value="" style="shape=partialRectangle;overflow=hidden;connectable=0;fillColor=none;top=0;left=0;bottom=0;right=0;" vertex="1" parent="5mjjKiy3UBhydVaI08Zq-221">
          <mxGeometry width="30" height="30" as="geometry" />
        </mxCell>
        <mxCell id="5mjjKiy3UBhydVaI08Zq-223" value="Ma_CB nvarchar (20)" style="shape=partialRectangle;overflow=hidden;connectable=0;fillColor=none;top=0;left=0;bottom=0;right=0;align=left;spacingLeft=6;" vertex="1" parent="5mjjKiy3UBhydVaI08Zq-221">
          <mxGeometry x="30" width="220" height="30" as="geometry" />
        </mxCell>
        <mxCell id="5mjjKiy3UBhydVaI08Zq-100" style="edgeStyle=orthogonalEdgeStyle;rounded=0;orthogonalLoop=1;jettySize=auto;html=1;exitX=1;exitY=0.5;exitDx=0;exitDy=0;entryX=0;entryY=0.5;entryDx=0;entryDy=0;" edge="1" parent="1" source="5mjjKiy3UBhydVaI08Zq-41" target="5mjjKiy3UBhydVaI08Zq-63">
          <mxGeometry relative="1" as="geometry" />
        </mxCell>
        <mxCell id="5mjjKiy3UBhydVaI08Zq-101" value="Phuong_Tien" style="shape=table;startSize=30;container=1;collapsible=1;childLayout=tableLayout;fixedRows=1;rowLines=0;fontStyle=1;align=center;resizeLast=1;" vertex="1" parent="1">
          <mxGeometry x="470" y="120" width="250" height="370" as="geometry" />
        </mxCell>
        <mxCell id="5mjjKiy3UBhydVaI08Zq-102" value="" style="shape=partialRectangle;collapsible=0;dropTarget=0;pointerEvents=0;fillColor=none;points=[[0,0.5],[1,0.5]];portConstraint=eastwest;top=0;left=0;right=0;bottom=1;" vertex="1" parent="5mjjKiy3UBhydVaI08Zq-101">
          <mxGeometry y="30" width="250" height="30" as="geometry" />
        </mxCell>
        <mxCell id="5mjjKiy3UBhydVaI08Zq-103" value="PK" style="shape=partialRectangle;overflow=hidden;connectable=0;fillColor=none;top=0;left=0;bottom=0;right=0;fontStyle=1;" vertex="1" parent="5mjjKiy3UBhydVaI08Zq-102">
          <mxGeometry width="30" height="30" as="geometry" />
        </mxCell>
        <mxCell id="5mjjKiy3UBhydVaI08Zq-104" value="Ma_PT nvarchar(20) NOT NULL" style="shape=partialRectangle;overflow=hidden;connectable=0;fillColor=none;top=0;left=0;bottom=0;right=0;align=left;spacingLeft=6;fontStyle=5;" vertex="1" parent="5mjjKiy3UBhydVaI08Zq-102">
          <mxGeometry x="30" width="220" height="30" as="geometry" />
        </mxCell>
        <mxCell id="5mjjKiy3UBhydVaI08Zq-105" value="" style="shape=partialRectangle;collapsible=0;dropTarget=0;pointerEvents=0;fillColor=none;points=[[0,0.5],[1,0.5]];portConstraint=eastwest;top=0;left=0;right=0;bottom=0;" vertex="1" parent="5mjjKiy3UBhydVaI08Zq-101">
          <mxGeometry y="60" width="250" height="30" as="geometry" />
        </mxCell>
        <mxCell id="5mjjKiy3UBhydVaI08Zq-106" value="" style="shape=partialRectangle;overflow=hidden;connectable=0;fillColor=none;top=0;left=0;bottom=0;right=0;" vertex="1" parent="5mjjKiy3UBhydVaI08Zq-105">
          <mxGeometry width="30" height="30" as="geometry" />
        </mxCell>
        <mxCell id="5mjjKiy3UBhydVaI08Zq-107" value="Ma_Loai_PT nvarchar(20)" style="shape=partialRectangle;overflow=hidden;connectable=0;fillColor=none;top=0;left=0;bottom=0;right=0;align=left;spacingLeft=6;" vertex="1" parent="5mjjKiy3UBhydVaI08Zq-105">
          <mxGeometry x="30" width="220" height="30" as="geometry" />
        </mxCell>
        <mxCell id="5mjjKiy3UBhydVaI08Zq-111" value="" style="shape=partialRectangle;collapsible=0;dropTarget=0;pointerEvents=0;fillColor=none;points=[[0,0.5],[1,0.5]];portConstraint=eastwest;top=0;left=0;right=0;bottom=0;" vertex="1" parent="5mjjKiy3UBhydVaI08Zq-101">
          <mxGeometry y="90" width="250" height="30" as="geometry" />
        </mxCell>
        <mxCell id="5mjjKiy3UBhydVaI08Zq-112" value="" style="shape=partialRectangle;overflow=hidden;connectable=0;fillColor=none;top=0;left=0;bottom=0;right=0;" vertex="1" parent="5mjjKiy3UBhydVaI08Zq-111">
          <mxGeometry width="30" height="30" as="geometry" />
        </mxCell>
        <mxCell id="5mjjKiy3UBhydVaI08Zq-113" value="So_khung nvarchar(20)" style="shape=partialRectangle;overflow=hidden;connectable=0;fillColor=none;top=0;left=0;bottom=0;right=0;align=left;spacingLeft=6;" vertex="1" parent="5mjjKiy3UBhydVaI08Zq-111">
          <mxGeometry x="30" width="220" height="30" as="geometry" />
        </mxCell>
        <mxCell id="5mjjKiy3UBhydVaI08Zq-114" value="" style="shape=partialRectangle;collapsible=0;dropTarget=0;pointerEvents=0;fillColor=none;points=[[0,0.5],[1,0.5]];portConstraint=eastwest;top=0;left=0;right=0;bottom=0;" vertex="1" parent="5mjjKiy3UBhydVaI08Zq-101">
          <mxGeometry y="120" width="250" height="30" as="geometry" />
        </mxCell>
        <mxCell id="5mjjKiy3UBhydVaI08Zq-115" value="" style="shape=partialRectangle;overflow=hidden;connectable=0;fillColor=none;top=0;left=0;bottom=0;right=0;" vertex="1" parent="5mjjKiy3UBhydVaI08Zq-114">
          <mxGeometry width="30" height="30" as="geometry" />
        </mxCell>
        <mxCell id="5mjjKiy3UBhydVaI08Zq-116" value="So_may nvarchar(20)" style="shape=partialRectangle;overflow=hidden;connectable=0;fillColor=none;top=0;left=0;bottom=0;right=0;align=left;spacingLeft=6;" vertex="1" parent="5mjjKiy3UBhydVaI08Zq-114">
          <mxGeometry x="30" width="220" height="30" as="geometry" />
        </mxCell>
        <mxCell id="5mjjKiy3UBhydVaI08Zq-117" value="" style="shape=partialRectangle;collapsible=0;dropTarget=0;pointerEvents=0;fillColor=none;points=[[0,0.5],[1,0.5]];portConstraint=eastwest;top=0;left=0;right=0;bottom=0;" vertex="1" parent="5mjjKiy3UBhydVaI08Zq-101">
          <mxGeometry y="150" width="250" height="30" as="geometry" />
        </mxCell>
        <mxCell id="5mjjKiy3UBhydVaI08Zq-118" value="" style="shape=partialRectangle;overflow=hidden;connectable=0;fillColor=none;top=0;left=0;bottom=0;right=0;" vertex="1" parent="5mjjKiy3UBhydVaI08Zq-117">
          <mxGeometry width="30" height="30" as="geometry" />
        </mxCell>
        <mxCell id="5mjjKiy3UBhydVaI08Zq-119" value="Mau_son varchar(10)" style="shape=partialRectangle;overflow=hidden;connectable=0;fillColor=none;top=0;left=0;bottom=0;right=0;align=left;spacingLeft=6;" vertex="1" parent="5mjjKiy3UBhydVaI08Zq-117">
          <mxGeometry x="30" width="220" height="30" as="geometry" />
        </mxCell>
        <mxCell id="5mjjKiy3UBhydVaI08Zq-120" value="" style="shape=partialRectangle;collapsible=0;dropTarget=0;pointerEvents=0;fillColor=none;points=[[0,0.5],[1,0.5]];portConstraint=eastwest;top=0;left=0;right=0;bottom=0;" vertex="1" parent="5mjjKiy3UBhydVaI08Zq-101">
          <mxGeometry y="180" width="250" height="30" as="geometry" />
        </mxCell>
        <mxCell id="5mjjKiy3UBhydVaI08Zq-121" value="" style="shape=partialRectangle;overflow=hidden;connectable=0;fillColor=none;top=0;left=0;bottom=0;right=0;" vertex="1" parent="5mjjKiy3UBhydVaI08Zq-120">
          <mxGeometry width="30" height="30" as="geometry" />
        </mxCell>
        <mxCell id="5mjjKiy3UBhydVaI08Zq-122" value="Ma_Ho_So nvarchar(20)" style="shape=partialRectangle;overflow=hidden;connectable=0;fillColor=none;top=0;left=0;bottom=0;right=0;align=left;spacingLeft=6;" vertex="1" parent="5mjjKiy3UBhydVaI08Zq-120">
          <mxGeometry x="30" width="220" height="30" as="geometry" />
        </mxCell>
        <mxCell id="5mjjKiy3UBhydVaI08Zq-170" value="" style="shape=partialRectangle;collapsible=0;dropTarget=0;pointerEvents=0;fillColor=none;points=[[0,0.5],[1,0.5]];portConstraint=eastwest;top=0;left=0;right=0;bottom=0;" vertex="1" parent="5mjjKiy3UBhydVaI08Zq-101">
          <mxGeometry y="210" width="250" height="30" as="geometry" />
        </mxCell>
        <mxCell id="5mjjKiy3UBhydVaI08Zq-171" value="" style="shape=partialRectangle;overflow=hidden;connectable=0;fillColor=none;top=0;left=0;bottom=0;right=0;" vertex="1" parent="5mjjKiy3UBhydVaI08Zq-170">
          <mxGeometry width="30" height="30" as="geometry" />
        </mxCell>
        <mxCell id="5mjjKiy3UBhydVaI08Zq-172" value="Dung_tich_xi_lanh int(10)" style="shape=partialRectangle;overflow=hidden;connectable=0;fillColor=none;top=0;left=0;bottom=0;right=0;align=left;spacingLeft=6;" vertex="1" parent="5mjjKiy3UBhydVaI08Zq-170">
          <mxGeometry x="30" width="220" height="30" as="geometry" />
        </mxCell>
        <mxCell id="5mjjKiy3UBhydVaI08Zq-195" value="" style="shape=partialRectangle;collapsible=0;dropTarget=0;pointerEvents=0;fillColor=none;points=[[0,0.5],[1,0.5]];portConstraint=eastwest;top=0;left=0;right=0;bottom=0;" vertex="1" parent="5mjjKiy3UBhydVaI08Zq-101">
          <mxGeometry y="240" width="250" height="30" as="geometry" />
        </mxCell>
        <mxCell id="5mjjKiy3UBhydVaI08Zq-196" value="" style="shape=partialRectangle;overflow=hidden;connectable=0;fillColor=none;top=0;left=0;bottom=0;right=0;" vertex="1" parent="5mjjKiy3UBhydVaI08Zq-195">
          <mxGeometry width="30" height="30" as="geometry" />
        </mxCell>
        <mxCell id="5mjjKiy3UBhydVaI08Zq-197" value="Ten_PT nvarchar(20)" style="shape=partialRectangle;overflow=hidden;connectable=0;fillColor=none;top=0;left=0;bottom=0;right=0;align=left;spacingLeft=6;" vertex="1" parent="5mjjKiy3UBhydVaI08Zq-195">
          <mxGeometry x="30" width="220" height="30" as="geometry" />
        </mxCell>
        <mxCell id="5mjjKiy3UBhydVaI08Zq-202" value="" style="shape=partialRectangle;collapsible=0;dropTarget=0;pointerEvents=0;fillColor=none;points=[[0,0.5],[1,0.5]];portConstraint=eastwest;top=0;left=0;right=0;bottom=0;" vertex="1" parent="5mjjKiy3UBhydVaI08Zq-101">
          <mxGeometry y="270" width="250" height="30" as="geometry" />
        </mxCell>
        <mxCell id="5mjjKiy3UBhydVaI08Zq-203" value="" style="shape=partialRectangle;overflow=hidden;connectable=0;fillColor=none;top=0;left=0;bottom=0;right=0;" vertex="1" parent="5mjjKiy3UBhydVaI08Zq-202">
          <mxGeometry width="30" height="30" as="geometry" />
        </mxCell>
        <mxCell id="5mjjKiy3UBhydVaI08Zq-204" value="Namsx date()" style="shape=partialRectangle;overflow=hidden;connectable=0;fillColor=none;top=0;left=0;bottom=0;right=0;align=left;spacingLeft=6;" vertex="1" parent="5mjjKiy3UBhydVaI08Zq-202">
          <mxGeometry x="30" width="220" height="30" as="geometry" />
        </mxCell>
        <mxCell id="5mjjKiy3UBhydVaI08Zq-123" style="edgeStyle=orthogonalEdgeStyle;rounded=0;orthogonalLoop=1;jettySize=auto;html=1;exitX=1;exitY=0.5;exitDx=0;exitDy=0;entryX=0;entryY=0.5;entryDx=0;entryDy=0;" edge="1" parent="1" source="5mjjKiy3UBhydVaI08Zq-60" target="5mjjKiy3UBhydVaI08Zq-120">
          <mxGeometry relative="1" as="geometry" />
        </mxCell>
        <mxCell id="5mjjKiy3UBhydVaI08Zq-124" value="Loai_PT" style="shape=table;startSize=30;container=1;collapsible=1;childLayout=tableLayout;fixedRows=1;rowLines=0;fontStyle=1;align=center;resizeLast=1;" vertex="1" parent="1">
          <mxGeometry x="850" y="80" width="250" height="100" as="geometry" />
        </mxCell>
        <mxCell id="5mjjKiy3UBhydVaI08Zq-125" value="" style="shape=partialRectangle;collapsible=0;dropTarget=0;pointerEvents=0;fillColor=none;points=[[0,0.5],[1,0.5]];portConstraint=eastwest;top=0;left=0;right=0;bottom=1;" vertex="1" parent="5mjjKiy3UBhydVaI08Zq-124">
          <mxGeometry y="30" width="250" height="30" as="geometry" />
        </mxCell>
        <mxCell id="5mjjKiy3UBhydVaI08Zq-126" value="PK" style="shape=partialRectangle;overflow=hidden;connectable=0;fillColor=none;top=0;left=0;bottom=0;right=0;fontStyle=1;" vertex="1" parent="5mjjKiy3UBhydVaI08Zq-125">
          <mxGeometry width="30" height="30" as="geometry" />
        </mxCell>
        <mxCell id="5mjjKiy3UBhydVaI08Zq-127" value="Ma_loai_PT nvarchar(20)" style="shape=partialRectangle;overflow=hidden;connectable=0;fillColor=none;top=0;left=0;bottom=0;right=0;align=left;spacingLeft=6;fontStyle=5;" vertex="1" parent="5mjjKiy3UBhydVaI08Zq-125">
          <mxGeometry x="30" width="220" height="30" as="geometry" />
        </mxCell>
        <mxCell id="5mjjKiy3UBhydVaI08Zq-128" value="" style="shape=partialRectangle;collapsible=0;dropTarget=0;pointerEvents=0;fillColor=none;points=[[0,0.5],[1,0.5]];portConstraint=eastwest;top=0;left=0;right=0;bottom=0;" vertex="1" parent="5mjjKiy3UBhydVaI08Zq-124">
          <mxGeometry y="60" width="250" height="30" as="geometry" />
        </mxCell>
        <mxCell id="5mjjKiy3UBhydVaI08Zq-129" value="" style="shape=partialRectangle;overflow=hidden;connectable=0;fillColor=none;top=0;left=0;bottom=0;right=0;" vertex="1" parent="5mjjKiy3UBhydVaI08Zq-128">
          <mxGeometry width="30" height="30" as="geometry" />
        </mxCell>
        <mxCell id="5mjjKiy3UBhydVaI08Zq-130" value="Ten_loai_PT nvarchar (20)" style="shape=partialRectangle;overflow=hidden;connectable=0;fillColor=none;top=0;left=0;bottom=0;right=0;align=left;spacingLeft=6;" vertex="1" parent="5mjjKiy3UBhydVaI08Zq-128">
          <mxGeometry x="30" width="220" height="30" as="geometry" />
        </mxCell>
        <mxCell id="5mjjKiy3UBhydVaI08Zq-146" style="edgeStyle=orthogonalEdgeStyle;rounded=0;orthogonalLoop=1;jettySize=auto;html=1;exitX=1;exitY=0.5;exitDx=0;exitDy=0;entryX=0;entryY=0.5;entryDx=0;entryDy=0;" edge="1" parent="1" source="5mjjKiy3UBhydVaI08Zq-105" target="5mjjKiy3UBhydVaI08Zq-125">
          <mxGeometry relative="1" as="geometry">
            <mxPoint x="770" y="130" as="targetPoint" />
          </mxGeometry>
        </mxCell>
        <mxCell id="5mjjKiy3UBhydVaI08Zq-147" value="1" style="text;html=1;resizable=0;autosize=1;align=center;verticalAlign=middle;points=[];fillColor=none;strokeColor=none;rounded=0;" vertex="1" parent="1">
          <mxGeometry x="-10" y="110" width="20" height="20" as="geometry" />
        </mxCell>
        <mxCell id="5mjjKiy3UBhydVaI08Zq-148" value="n" style="text;html=1;resizable=0;autosize=1;align=center;verticalAlign=middle;points=[];fillColor=none;strokeColor=none;rounded=0;" vertex="1" parent="1">
          <mxGeometry x="90" y="170" width="20" height="20" as="geometry" />
        </mxCell>
        <mxCell id="5mjjKiy3UBhydVaI08Zq-150" value="n" style="text;html=1;resizable=0;autosize=1;align=center;verticalAlign=middle;points=[];fillColor=none;strokeColor=none;rounded=0;" vertex="1" parent="1">
          <mxGeometry x="450" y="295" width="20" height="20" as="geometry" />
        </mxCell>
        <mxCell id="5mjjKiy3UBhydVaI08Zq-151" value="1" style="text;html=1;resizable=0;autosize=1;align=center;verticalAlign=middle;points=[];fillColor=none;strokeColor=none;rounded=0;" vertex="1" parent="1">
          <mxGeometry x="830" y="100" width="20" height="20" as="geometry" />
        </mxCell>
        <mxCell id="5mjjKiy3UBhydVaI08Zq-152" value="1" style="text;html=1;resizable=0;autosize=1;align=center;verticalAlign=middle;points=[];fillColor=none;strokeColor=none;rounded=0;" vertex="1" parent="1">
          <mxGeometry x="720" y="170" width="20" height="20" as="geometry" />
        </mxCell>
        <mxCell id="5mjjKiy3UBhydVaI08Zq-155" value="1" style="text;html=1;resizable=0;autosize=1;align=center;verticalAlign=middle;points=[];fillColor=none;strokeColor=none;rounded=0;" vertex="1" parent="1">
          <mxGeometry x="360" y="145" width="20" height="20" as="geometry" />
        </mxCell>
        <mxCell id="5mjjKiy3UBhydVaI08Zq-205" value="Can_Bo_DK" style="shape=table;startSize=20;container=1;collapsible=1;childLayout=tableLayout;fixedRows=1;rowLines=0;fontStyle=1;align=center;resizeLast=1;" vertex="1" parent="1">
          <mxGeometry x="-260" y="395" width="250" height="160" as="geometry">
            <mxRectangle x="100" y="150" width="70" height="20" as="alternateBounds" />
          </mxGeometry>
        </mxCell>
        <mxCell id="5mjjKiy3UBhydVaI08Zq-206" value="" style="shape=partialRectangle;collapsible=0;dropTarget=0;pointerEvents=0;fillColor=none;points=[[0,0.5],[1,0.5]];portConstraint=eastwest;top=0;left=0;right=0;bottom=1;" vertex="1" parent="5mjjKiy3UBhydVaI08Zq-205">
          <mxGeometry y="20" width="250" height="30" as="geometry" />
        </mxCell>
        <mxCell id="5mjjKiy3UBhydVaI08Zq-207" value="PK" style="shape=partialRectangle;overflow=hidden;connectable=0;fillColor=none;top=0;left=0;bottom=0;right=0;fontStyle=1;" vertex="1" parent="5mjjKiy3UBhydVaI08Zq-206">
          <mxGeometry width="30" height="30" as="geometry" />
        </mxCell>
        <mxCell id="5mjjKiy3UBhydVaI08Zq-208" value="Ma_CB nvarchar (20)" style="shape=partialRectangle;overflow=hidden;connectable=0;fillColor=none;top=0;left=0;bottom=0;right=0;align=left;spacingLeft=6;fontStyle=5;" vertex="1" parent="5mjjKiy3UBhydVaI08Zq-206">
          <mxGeometry x="30" width="220" height="30" as="geometry" />
        </mxCell>
        <mxCell id="5mjjKiy3UBhydVaI08Zq-209" value="" style="shape=partialRectangle;collapsible=0;dropTarget=0;pointerEvents=0;fillColor=none;points=[[0,0.5],[1,0.5]];portConstraint=eastwest;top=0;left=0;right=0;bottom=0;" vertex="1" parent="5mjjKiy3UBhydVaI08Zq-205">
          <mxGeometry y="50" width="250" height="30" as="geometry" />
        </mxCell>
        <mxCell id="5mjjKiy3UBhydVaI08Zq-210" value="" style="shape=partialRectangle;overflow=hidden;connectable=0;fillColor=none;top=0;left=0;bottom=0;right=0;" vertex="1" parent="5mjjKiy3UBhydVaI08Zq-209">
          <mxGeometry width="30" height="30" as="geometry" />
        </mxCell>
        <mxCell id="5mjjKiy3UBhydVaI08Zq-211" value="Ten_CB nvarchar(20)" style="shape=partialRectangle;overflow=hidden;connectable=0;fillColor=none;top=0;left=0;bottom=0;right=0;align=left;spacingLeft=6;" vertex="1" parent="5mjjKiy3UBhydVaI08Zq-209">
          <mxGeometry x="30" width="220" height="30" as="geometry" />
        </mxCell>
        <mxCell id="5mjjKiy3UBhydVaI08Zq-218" value="" style="shape=partialRectangle;collapsible=0;dropTarget=0;pointerEvents=0;fillColor=none;points=[[0,0.5],[1,0.5]];portConstraint=eastwest;top=0;left=0;right=0;bottom=0;" vertex="1" parent="5mjjKiy3UBhydVaI08Zq-205">
          <mxGeometry y="80" width="250" height="30" as="geometry" />
        </mxCell>
        <mxCell id="5mjjKiy3UBhydVaI08Zq-219" value="" style="shape=partialRectangle;overflow=hidden;connectable=0;fillColor=none;top=0;left=0;bottom=0;right=0;" vertex="1" parent="5mjjKiy3UBhydVaI08Zq-218">
          <mxGeometry width="30" height="30" as="geometry" />
        </mxCell>
        <mxCell id="5mjjKiy3UBhydVaI08Zq-220" value="MA_DV" style="shape=partialRectangle;overflow=hidden;connectable=0;fillColor=none;top=0;left=0;bottom=0;right=0;align=left;spacingLeft=6;" vertex="1" parent="5mjjKiy3UBhydVaI08Zq-218">
          <mxGeometry x="30" width="220" height="30" as="geometry" />
        </mxCell>
        <mxCell id="5mjjKiy3UBhydVaI08Zq-224" value="Don_Vi" style="shape=table;startSize=20;container=1;collapsible=1;childLayout=tableLayout;fixedRows=1;rowLines=0;fontStyle=1;align=center;resizeLast=1;" vertex="1" parent="1">
          <mxGeometry x="230" y="550" width="250" height="180" as="geometry">
            <mxRectangle x="100" y="150" width="70" height="20" as="alternateBounds" />
          </mxGeometry>
        </mxCell>
        <mxCell id="5mjjKiy3UBhydVaI08Zq-225" value="" style="shape=partialRectangle;collapsible=0;dropTarget=0;pointerEvents=0;fillColor=none;points=[[0,0.5],[1,0.5]];portConstraint=eastwest;top=0;left=0;right=0;bottom=1;" vertex="1" parent="5mjjKiy3UBhydVaI08Zq-224">
          <mxGeometry y="20" width="250" height="30" as="geometry" />
        </mxCell>
        <mxCell id="5mjjKiy3UBhydVaI08Zq-226" value="PK" style="shape=partialRectangle;overflow=hidden;connectable=0;fillColor=none;top=0;left=0;bottom=0;right=0;fontStyle=1;" vertex="1" parent="5mjjKiy3UBhydVaI08Zq-225">
          <mxGeometry width="30" height="30" as="geometry" />
        </mxCell>
        <mxCell id="5mjjKiy3UBhydVaI08Zq-227" value="Ma_DV" style="shape=partialRectangle;overflow=hidden;connectable=0;fillColor=none;top=0;left=0;bottom=0;right=0;align=left;spacingLeft=6;fontStyle=5;" vertex="1" parent="5mjjKiy3UBhydVaI08Zq-225">
          <mxGeometry x="30" width="220" height="30" as="geometry" />
        </mxCell>
        <mxCell id="5mjjKiy3UBhydVaI08Zq-228" value="" style="shape=partialRectangle;collapsible=0;dropTarget=0;pointerEvents=0;fillColor=none;points=[[0,0.5],[1,0.5]];portConstraint=eastwest;top=0;left=0;right=0;bottom=0;" vertex="1" parent="5mjjKiy3UBhydVaI08Zq-224">
          <mxGeometry y="50" width="250" height="30" as="geometry" />
        </mxCell>
        <mxCell id="5mjjKiy3UBhydVaI08Zq-229" value="" style="shape=partialRectangle;overflow=hidden;connectable=0;fillColor=none;top=0;left=0;bottom=0;right=0;" vertex="1" parent="5mjjKiy3UBhydVaI08Zq-228">
          <mxGeometry width="30" height="30" as="geometry" />
        </mxCell>
        <mxCell id="5mjjKiy3UBhydVaI08Zq-230" value="DiaChi_DV" style="shape=partialRectangle;overflow=hidden;connectable=0;fillColor=none;top=0;left=0;bottom=0;right=0;align=left;spacingLeft=6;" vertex="1" parent="5mjjKiy3UBhydVaI08Zq-228">
          <mxGeometry x="30" width="220" height="30" as="geometry" />
        </mxCell>
        <mxCell id="5mjjKiy3UBhydVaI08Zq-240" value="" style="shape=partialRectangle;collapsible=0;dropTarget=0;pointerEvents=0;fillColor=none;points=[[0,0.5],[1,0.5]];portConstraint=eastwest;top=0;left=0;right=0;bottom=0;" vertex="1" parent="5mjjKiy3UBhydVaI08Zq-224">
          <mxGeometry y="80" width="250" height="30" as="geometry" />
        </mxCell>
        <mxCell id="5mjjKiy3UBhydVaI08Zq-241" value="" style="shape=partialRectangle;overflow=hidden;connectable=0;fillColor=none;top=0;left=0;bottom=0;right=0;" vertex="1" parent="5mjjKiy3UBhydVaI08Zq-240">
          <mxGeometry width="30" height="30" as="geometry" />
        </mxCell>
        <mxCell id="5mjjKiy3UBhydVaI08Zq-242" value="" style="shape=partialRectangle;overflow=hidden;connectable=0;fillColor=none;top=0;left=0;bottom=0;right=0;align=left;spacingLeft=6;" vertex="1" parent="5mjjKiy3UBhydVaI08Zq-240">
          <mxGeometry x="30" width="220" height="30" as="geometry" />
        </mxCell>
        <mxCell id="5mjjKiy3UBhydVaI08Zq-243" style="edgeStyle=orthogonalEdgeStyle;rounded=0;orthogonalLoop=1;jettySize=auto;html=1;exitX=1;exitY=0.5;exitDx=0;exitDy=0;entryX=0;entryY=0.5;entryDx=0;entryDy=0;" edge="1" parent="1" source="5mjjKiy3UBhydVaI08Zq-206" target="5mjjKiy3UBhydVaI08Zq-221">
          <mxGeometry relative="1" as="geometry" />
        </mxCell>
        <mxCell id="5mjjKiy3UBhydVaI08Zq-245" value="1" style="text;html=1;resizable=0;autosize=1;align=center;verticalAlign=middle;points=[];fillColor=none;strokeColor=none;rounded=0;" vertex="1" parent="1">
          <mxGeometry x="210" y="555" width="20" height="20" as="geometry" />
        </mxCell>
        <mxCell id="5mjjKiy3UBhydVaI08Zq-246" value="n" style="text;html=1;resizable=0;autosize=1;align=center;verticalAlign=middle;points=[];fillColor=none;strokeColor=none;rounded=0;" vertex="1" parent="1">
          <mxGeometry x="-10" y="465" width="20" height="20" as="geometry" />
        </mxCell>
        <mxCell id="5mjjKiy3UBhydVaI08Zq-247" value="1" style="text;html=1;resizable=0;autosize=1;align=center;verticalAlign=middle;points=[];fillColor=none;strokeColor=none;rounded=0;" vertex="1" parent="1">
          <mxGeometry x="-10" y="410" width="20" height="20" as="geometry" />
        </mxCell>
        <mxCell id="5mjjKiy3UBhydVaI08Zq-248" value="n" style="text;html=1;resizable=0;autosize=1;align=center;verticalAlign=middle;points=[];fillColor=none;strokeColor=none;rounded=0;" vertex="1" parent="1">
          <mxGeometry x="90" y="260" width="20" height="20" as="geometry" />
        </mxCell>
        <mxCell id="5mjjKiy3UBhydVaI08Zq-251" style="edgeStyle=orthogonalEdgeStyle;rounded=0;orthogonalLoop=1;jettySize=auto;html=1;exitX=1;exitY=0.5;exitDx=0;exitDy=0;entryX=0;entryY=0.5;entryDx=0;entryDy=0;" edge="1" parent="1" source="5mjjKiy3UBhydVaI08Zq-218" target="5mjjKiy3UBhydVaI08Zq-225">
          <mxGeometry relative="1" as="geometry" />
        </mxCell>
      </root>
    </mxGraphModel>
  </diagram>
</mxfile>
